<?xml version="1.0" encoding="utf-8"?>

<!DOCTYPE svg PUBLIC "-//W3C//DTD SVG 1.1//EN" "http://www.w3.org/Graphics/SVG/1.1/DTD/svg11.dtd">
<svg version="1.1" id="Layer_1" xmlns="http://www.w3.org/2000/svg" xmlns:xlink="http://www.w3.org/1999/xlink" x="0px" y="0px"
	 viewBox="-687.8754 -226 2668.7507 1163.17" enable-background="new -687.8754 -226 2668.7507 1163.17" xml:space="preserve">
<g>
	<path d="M-612.066-202.3006c16.1162,3.8496,32.004,8.4496,47.8593,13.2127c110.3994,33.5047,218.5151,74.7414,322.879,123.9057
		C-125.3169-10.1457-13.3517,54.6455,87.3911,134.5741c90.4988,72.2294,172.3523,157.4105,230.0641,258.4468
		c-2.1533-39.214-3.4581-78.4605-5.4484-117.6746c-0.1631-5.4482-1.2722-12.1035,3.9476-15.7247
		C370.371,206.412,424.5269,152.9088,478.813,99.5686c37.3217-36.2451,73.6649-73.5995,111.737-108.9965
		c-21.2056,48.1856-45.8366,94.8704-68.3796,142.4361c-26.817,56.2111-55.2976,111.7044-81.1684,168.2743
		c10.407,85.4094,22.7061,170.6231,34.2878,255.9021c15.0722,117.5114,31.6777,234.827,47.2721,352.2405
		c-10.3417-6.0353-12.5277-18.2367-17.1602-28.2523c-50.9259-116.7936-120.7739-224.8768-202.8882-322.0961
		C139.4263,367.2154-67.9314,216.5254-291.3402,102.3091c-55.5586-27.6978-111.7696-54.5799-170.2317-75.6223
		c44.5643,48.7076,73.6974,110.3993,86.4208,174.9948c2.3163,12.4624,0.4241,25.153,0.1632,37.7133
		c-2.1859,72.5556,9.6566,146.3836,40.6819,212.3818c18.6935,39.7359,44.1728,76.6335,76.8294,106.1909
		c6.3616,5.8071,13.3759,10.9617,20.9772,15.0397c-33.9289-54.9713-62.3443-115.2604-68.9344-180.2472
		c-5.1872-39.6055,0.8809-79.5698,9.4936-118.2292c9.3305-39.0834-0.4567-79.2761-11.5163-116.8915
		c42.4438,22.6084,83.7457,47.3374,126.7114,68.9669c-36.1799,48.2508-41.8565,111.476-38.3005,169.775
		c1.8269,17.1276,1.3701,35.4296,9.9177,50.9586c26.9799,52.5246,62.5727,102.9938,113.3029,134.9
		c43.9771,28.3502,99.1442,36.7346,150.0375,25.9034c51.8067-11.3857,101.9823-35.9515,139.2389-74.1868
		c87.6279,79.113,152.0928,180.0189,205.9223,284.187c-27.6977,4.8936-56.0152,4.6327-84.0393,5.6766
		c-144.0999,2.7405-289.3417-13.441-427.3735-55.9174c-113.5313-35.5601-222.5278-91.1512-309.6663-173.1352
		c-52.8508-48.577-96.3059-106.9086-129.5823-170.4274c-13.8326-25.4793-26.197-51.709-38.3984-78.0038
		c-15.2353-33.0807-28.8721-66.8464-43.8139-100.0577c22.7062,32.363,44.7927,65.2479,69.5869,96.1102
		c9.9829,12.3318,19.3133,25.3814,31.7104,35.4622c-11.1901-68.8039-20.5205-137.9013-30.2098-206.9336
		C-579.018,46.5222-596.7328-77.7424-612.066-202.3006z"/>
	<path d="M1583.2311-81.5594c104.9838-45.9671,212.8385-85.9967,323.6293-115.5214
		c-14.5176,102.9938-27.3716,206.1833-41.7584,309.2096c-12.5603,90.6293-24.2072,181.4217-39.214,271.6921
		c13.2452-11.0269,23.2609-25.1857,33.994-38.4636c23.6199-29.851,45.3145-61.1699,66.618-92.652
		c-27.2083,64.9543-54.7102,130.0717-88.998,191.7309c-40.8125,73.991-96.795,139.402-163.2175,191.6003
		c-86.6492,68.804-189.1862,115.1951-295.1487,145.4049c-157.6715,44.0096-323.3033,56.1132-486.1946,43.4877
		c20.39-43.6835,45.0863-85.2463,71.5118-125.5043c39.0181-58.4294,83.5499-113.7271,136.7269-159.9225
		c15.8551,18.6609,36.7999,31.9388,57.8748,43.9444c47.2396,26.0339,102.537,40.8778,156.5298,32.4609
		c49.1642-7.4382,93.3044-35.5275,126.222-72.0989c26.8168-29.8509,49.001-64.0408,65.5414-100.547
		c9.4611-49.0011,9.4937-100.6122-3.132-149.0913c-5.807-22.2169-15.6921-43.3246-29.2635-61.8876
		c42.5741-21.8581,83.7129-46.3912,126.0588-68.6408c-6.4921,23.8807-13.1149,47.9572-14.5177,72.8166
		c-2.7078,29.6551,8.0907,58.1032,11.5815,87.2364c10.7985,68.3472-6.2638,138.2603-36.7346,199.4953
		c-8.6453,18.7588-20.1616,36.0169-29.6877,54.3188c19.085-10.1133,33.4396-26.9799,47.6636-42.8351
		c64.5626-77.0904,91.0209-179.7905,89.9442-278.902c0.261-16.1162-2.9036-32.3303,0-48.316
		c12.136-64.5627,41.7585-125.6021,85.3441-174.7664c-48.0551,16.6382-94.022,38.8551-139.924,60.5827
		c-207.9125,102.1782-401.8616,235.9363-562.4041,403.6233c-113.4008,119.371-209.3477,257.0114-271.9203,409.7567
		c-2.1207,3.0013-4.8936,5.285-8.3519,6.8185c3.7518-34.0594,9.1022-67.9232,13.1149-101.9172
		c22.7064-165.436,44.7275-330.9698,67.2379-496.4384c2.61-10.8964-4.8936-20.1289-9.004-29.5246
		C795.9829,188.4363,748.7109,91.2169,701.4062-6.0024c4.6652,3.8823,9.102,8.0581,13.4084,12.3644
		c88.6718,87.8563,178.5181,174.6033,266.6353,262.9815c-0.1631,42.6069-2.6099,85.4095-4.8609,128.0164
		c9.363-13.3433,16.9645-27.7957,26.2296-41.1715c59.0495-89.0959,136.6944-164.392,220.9621-229.4767
		C1334.1475,42.3463,1456.5197-25.1526,1583.2311-81.5594z"/>
	<path d="M-104.666,275.901l2.3489-0.8483c50.0124,36.7998,98.7853,75.3613,146.7098,114.8688
		c28.1218,24.5985,57.8748,48.1856,80.7442,78.0038l-0.1957,1.9248c-21.4992,21.7602-49.5558,36.7346-78.8194,45.1842
		c-34.3857,9.6241-72.4577,4.8284-102.9285-13.963c-30.3403-17.8127-52.9487-45.8693-71.7727-75.0351
		c-3.3929-5.1872-3.7518-11.5815-4.6326-17.519c-1.7291-18.8893-1.5985-37.909,0.4241-56.7983
		C-128.8404,324.9674-121.9567,297.3675-104.666,275.901z"/>
	<path d="M1420.5682,324.7717c-5.3831-16.1489-12.7888-31.6126-22.8042-45.4127c-40.1929,29.6879-79.5371,60.5176-118.4904,91.8038
		c-38.7894,32.3955-79.6674,63.4536-111.2148,103.2875c38.9205,38.6919,98.1653,61.4633,152.4515,45.7713
		c44.4338-13.4411,77.1558-49.6535,101.4277-87.6278c5.1222-7.2426,4.7634-16.5077,5.7092-24.8921
		C1429.9961,381.0154,1427.1909,353.285,1420.5682,324.7717z"/>
</g>
</svg>
